<svg xmlns="http://www.w3.org/2000/svg" viewBox="0 0 416.88 57.19"><defs><style>.cls-1{fill:#889526;}.cls-2{fill:#4d4d4d;}</style></defs><g id="Layer_2" data-name="Layer 2"><g id="Layer_1-2" data-name="Layer 1"><path class="cls-1" d="M58.75,57.19a12.74,12.74,0,0,1-10.88-5.38q-4-5.37-4-14.9t4-15.07A13.06,13.06,0,0,1,59,16.44a12.84,12.84,0,0,1,11.32,5.77h.35a43.74,43.74,0,0,1-.81-7.84V1.78H80.65V56.49H72.42l-2.07-5.1h-.46Q66.23,57.19,58.75,57.19Zm3.76-8.54q4.11,0,6-2.39c1.28-1.6,2-4.3,2.09-8.12V37c0-4.22-.65-7.25-1.95-9.07s-3.42-2.75-6.35-2.75a6.3,6.3,0,0,0-5.57,3c-1.32,2-2,5-2,8.85s.67,6.76,2,8.7A6.54,6.54,0,0,0,62.51,48.65Z"/><path class="cls-1" d="M116.83,56.49l-2.08-5.35h-.28a15.83,15.83,0,0,1-5.57,4.73,18,18,0,0,1-7.47,1.32q-5.67,0-8.92-3.23t-3.25-9.21q0-6.27,4.38-9.23t13.2-3.29l6.82-.21V30.3q0-6-6.12-6a27.83,27.83,0,0,0-11.07,2.85l-3.55-7.24a31.92,31.92,0,0,1,15-3.56q7.91,0,12.12,3.45t4.22,10.48V56.49Zm-3.17-18.21-4.15.14q-4.67.13-7,1.68a5.33,5.33,0,0,0-2.28,4.72q0,4.53,5.2,4.53a8.25,8.25,0,0,0,6-2.14,7.53,7.53,0,0,0,2.23-5.7Z"/><path class="cls-1" d="M151.91,48.65a23.2,23.2,0,0,0,6.75-1.23v8a24.13,24.13,0,0,1-9.84,1.79q-6.44,0-9.37-3.25t-2.94-9.76V25.23h-5.13V20.7l5.91-3.59,3.09-8.29h6.86v8.36h11v8.05h-11v19a4.18,4.18,0,0,0,1.28,3.38A5.09,5.09,0,0,0,151.91,48.65Z"/><path class="cls-1" d="M191.57,56.49l-2.08-5.35h-.28a15.74,15.74,0,0,1-5.57,4.73,18,18,0,0,1-7.47,1.32q-5.67,0-8.91-3.23T164,44.75q0-6.27,4.37-9.23t13.2-3.29L188.4,32V30.3q0-6-6.11-6a27.84,27.84,0,0,0-11.08,2.85l-3.55-7.24a31.92,31.92,0,0,1,15.05-3.56q7.9,0,12.13,3.45t4.22,10.48V56.49ZM188.4,38.28l-4.14.14q-4.68.13-7,1.68A5.33,5.33,0,0,0,175,44.82q0,4.53,5.2,4.53a8.23,8.23,0,0,0,6-2.14,7.53,7.53,0,0,0,2.23-5.7Z"/><path class="cls-2" d="M231.82,25.23h-9.28V56.49H211.82V25.23h-5.91V20.07l5.91-2.89V14.3q0-6.72,3.3-9.81T225.7,1.4a27.54,27.54,0,0,1,9.88,1.65l-2.74,7.88a20,20,0,0,0-6-1,3.87,3.87,0,0,0-3.3,1.35,5.6,5.6,0,0,0-1,3.46v2.46h9.28Z"/><path class="cls-2" d="M273.69,36.77q0,9.58-5.06,15t-14.1,5.41a19.73,19.73,0,0,1-10-2.48,16.49,16.49,0,0,1-6.65-7.12,24,24,0,0,1-2.32-10.82q0-9.65,5-15t14.13-5.35a19.87,19.87,0,0,1,10,2.47A16.37,16.37,0,0,1,271.37,26,23.67,23.67,0,0,1,273.69,36.77Zm-27.17,0c0,3.89.63,6.83,1.91,8.82s3.36,3,6.24,3,4.92-1,6.17-3,1.88-4.93,1.88-8.84S262.09,30,260.83,28s-3.34-2.92-6.23-2.92-4.92,1-6.18,2.9S246.52,32.85,246.52,36.77Z"/><path class="cls-2" d="M304.49,16.44a17.33,17.33,0,0,1,3.62.32l-.81,10.06a12,12,0,0,0-3.16-.36q-5.13,0-8,2.64a9.54,9.54,0,0,0-2.87,7.38v20H282.55V17.18h8.12l1.59,6.61h.52a14.77,14.77,0,0,1,4.94-5.32A12.19,12.19,0,0,1,304.49,16.44Z"/><path class="cls-2" d="M333,57.19q-9.5,0-14.84-5.24t-5.34-14.83q0-9.88,4.94-15.28t13.65-5.4q8.34,0,13,4.75c3.09,3.16,4.64,7.54,4.64,13.11v5.21H323.72a10.32,10.32,0,0,0,2.71,7.13,9.51,9.51,0,0,0,7.1,2.57,29.55,29.55,0,0,0,6.71-.74,34,34,0,0,0,6.61-2.35v8.29a25.17,25.17,0,0,1-6,2.1A38.38,38.38,0,0,1,333,57.19Zm-1.52-33.12a6.78,6.78,0,0,0-5.34,2.17A9.93,9.93,0,0,0,324,32.37h15a8.91,8.91,0,0,0-2.07-6.13A7,7,0,0,0,331.52,24.07Z"/><path class="cls-2" d="M385.21,44.82q0,6-4.2,9.21t-12.57,3.16a39.12,39.12,0,0,1-7.31-.58,27.63,27.63,0,0,1-5.66-1.7V46.05a37.55,37.55,0,0,0,6.73,2.35,27.34,27.34,0,0,0,6.59,1q5.83,0,5.84-3.37a2.81,2.81,0,0,0-.78-2.06,10.69,10.69,0,0,0-2.67-1.79q-1.89-1-5.06-2.34a31.49,31.49,0,0,1-6.66-3.52,9.85,9.85,0,0,1-3.1-3.71,12.3,12.3,0,0,1-1-5.15,9.33,9.33,0,0,1,4.06-8.1q4.05-2.86,11.51-2.87a32.77,32.77,0,0,1,13.82,3.1l-3.24,7.73Q378.6,26,376,25.2a17.32,17.32,0,0,0-5.24-.81q-4.74,0-4.74,2.57a3,3,0,0,0,1.53,2.49,40.78,40.78,0,0,0,6.69,3.13A31,31,0,0,1,381,36.06a10.31,10.31,0,0,1,3.17,3.73A11.43,11.43,0,0,1,385.21,44.82Z"/><path class="cls-2" d="M410.13,48.65a23.2,23.2,0,0,0,6.75-1.23v8A24.13,24.13,0,0,1,407,57.19q-6.44,0-9.37-3.25t-2.93-9.76V25.23H389.6V20.7l5.91-3.59,3.09-8.29h6.86v8.36h11v8.05h-11v19a4.21,4.21,0,0,0,1.28,3.38A5.11,5.11,0,0,0,410.13,48.65Z"/><polygon class="cls-1" points="35.01 49.35 37.97 46.39 21.08 29.49 21.08 28.56 32.35 39.83 35.31 36.87 21.08 22.64 21.08 21.71 29.68 30.32 32.64 27.36 21.08 15.79 21.08 14.86 27.02 20.8 29.98 17.84 21.08 8.94 21.08 8.01 24.36 11.29 27.32 8.33 18.99 0 10.66 8.33 13.62 11.29 16.89 8.01 16.89 8.94 7.99 17.84 10.95 20.8 16.89 14.86 16.89 15.79 5.33 27.36 8.29 30.32 16.89 21.71 16.89 22.64 2.66 36.87 5.62 39.83 16.89 28.56 16.89 29.49 0 46.39 2.96 49.35 16.89 35.41 16.89 36.34 6.85 46.39 9.81 49.35 16.89 42.26 16.89 57 21.08 57 21.08 42.26 28.16 49.35 31.12 46.39 21.08 36.34 21.08 35.41 35.01 49.35"/></g></g></svg>