<svg xmlns="http://www.w3.org/2000/svg" viewBox="0 0 165.78 72"><defs><style>.cls-1{fill:#889526;}.cls-2{fill:#4d4d4d;}</style></defs><g id="Layer_2" data-name="Layer 2"><g id="Layer_1-2" data-name="Layer 1"><path class="cls-1" d="M63.21,33.86A6.76,6.76,0,0,1,57.46,31q-2.09-2.84-2.08-7.87c0-3.4.7-6,2.12-7.95a6.91,6.91,0,0,1,5.86-2.85,6.77,6.77,0,0,1,6,3.05h.19a22.74,22.74,0,0,1-.43-4.14V4.62h5.68V33.49H70.42L69.33,30.8h-.24A6.48,6.48,0,0,1,63.21,33.86Zm2-4.51a3.82,3.82,0,0,0,3.18-1.26,7.28,7.28,0,0,0,1.11-4.29v-.61a8.55,8.55,0,0,0-1-4.79A3.83,3.83,0,0,0,65.1,17a3.32,3.32,0,0,0-2.94,1.6,8.57,8.57,0,0,0-1,4.67,8.07,8.07,0,0,0,1.06,4.59A3.44,3.44,0,0,0,65.19,29.35Z"/><path class="cls-1" d="M93.86,33.49l-1.1-2.82h-.14a8.36,8.36,0,0,1-3,2.49,9.36,9.36,0,0,1-3.94.7A6.36,6.36,0,0,1,81,32.15a6.54,6.54,0,0,1-1.72-4.86,5.48,5.48,0,0,1,2.31-4.87q2.31-1.56,7-1.73l3.6-.12v-.91q0-3.15-3.23-3.15A14.67,14.67,0,0,0,83.12,18l-1.88-3.82a16.88,16.88,0,0,1,7.94-1.87c2.79,0,4.92.6,6.4,1.82a6.69,6.69,0,0,1,2.23,5.52V33.49Zm-1.67-9.61L90,24a7,7,0,0,0-3.67.89,2.79,2.79,0,0,0-1.21,2.49c0,1.59.91,2.39,2.75,2.39A4.35,4.35,0,0,0,91,28.59a4,4,0,0,0,1.18-3Z"/><path class="cls-1" d="M112.38,29.35a12.38,12.38,0,0,0,3.56-.65v4.21a12.71,12.71,0,0,1-5.2,1q-3.39,0-4.94-1.72A7.48,7.48,0,0,1,104.25,27V17h-2.71V14.6l3.12-1.89,1.63-4.38h3.62v4.41h5.81V17h-5.81V27a2.17,2.17,0,0,0,.68,1.78A2.62,2.62,0,0,0,112.38,29.35Z"/><path class="cls-1" d="M133.31,33.49l-1.1-2.82h-.15a8.26,8.26,0,0,1-2.94,2.49,9.39,9.39,0,0,1-3.94.7,6.36,6.36,0,0,1-4.7-1.71,6.54,6.54,0,0,1-1.72-4.86,5.48,5.48,0,0,1,2.31-4.87q2.31-1.56,7-1.73l3.6-.12v-.91q0-3.15-3.23-3.15a14.75,14.75,0,0,0-5.85,1.5l-1.87-3.82a16.85,16.85,0,0,1,7.94-1.87c2.78,0,4.92.6,6.4,1.82a6.69,6.69,0,0,1,2.23,5.52V33.49Zm-1.67-9.61-2.19.07a7.09,7.09,0,0,0-3.68.89,2.81,2.81,0,0,0-1.2,2.49c0,1.59.91,2.39,2.74,2.39a4.39,4.39,0,0,0,3.15-1.13,4,4,0,0,0,1.18-3Z"/><path class="cls-2" d="M68.11,50h-4.9v16.5H57.55V50H54.43V47.27l3.12-1.53V44.22c0-2.36.58-4.09,1.74-5.17s3-1.64,5.59-1.64a14.56,14.56,0,0,1,5.21.87l-1.45,4.16a10.52,10.52,0,0,0-3.15-.54,2,2,0,0,0-1.75.72,3,3,0,0,0-.53,1.82v1.3h4.9Z"/><path class="cls-2" d="M90.2,56.08q0,5.07-2.67,7.92a9.67,9.67,0,0,1-7.44,2.86,10.43,10.43,0,0,1-5.27-1.31,8.62,8.62,0,0,1-3.5-3.76,12.54,12.54,0,0,1-1.23-5.71q0-5.09,2.65-7.91a9.75,9.75,0,0,1,7.46-2.82,10.53,10.53,0,0,1,5.27,1.3A8.73,8.73,0,0,1,89,50.38,12.47,12.47,0,0,1,90.2,56.08Zm-14.34,0a8.79,8.79,0,0,0,1,4.66,3.62,3.62,0,0,0,3.3,1.57,3.56,3.56,0,0,0,3.25-1.56,8.89,8.89,0,0,0,1-4.67,8.57,8.57,0,0,0-1-4.62,4.26,4.26,0,0,0-6.55,0A8.54,8.54,0,0,0,75.86,56.08Z"/><path class="cls-2" d="M106.46,45.35a9.25,9.25,0,0,1,1.91.17l-.43,5.31a6.19,6.19,0,0,0-1.67-.19A6,6,0,0,0,102.05,52a5,5,0,0,0-1.51,3.9V66.49H94.88V45.74h4.29l.83,3.49h.28a7.74,7.74,0,0,1,2.61-2.81A6.42,6.42,0,0,1,106.46,45.35Z"/><path class="cls-2" d="M121.52,66.86q-5,0-7.83-2.77t-2.82-7.83q0-5.2,2.61-8.06a9.28,9.28,0,0,1,7.21-2.85,9.16,9.16,0,0,1,6.85,2.51A9.49,9.49,0,0,1,130,54.78v2.75H116.61A5.43,5.43,0,0,0,118,61.29a5,5,0,0,0,3.74,1.36,15.64,15.64,0,0,0,3.55-.39A18,18,0,0,0,128.82,61v4.38a13,13,0,0,1-3.18,1.11A20.08,20.08,0,0,1,121.52,66.86Zm-.79-17.48a3.59,3.59,0,0,0-2.82,1.14,5.29,5.29,0,0,0-1.17,3.24h7.94a4.72,4.72,0,0,0-1.1-3.24A3.68,3.68,0,0,0,120.73,49.38Z"/><path class="cls-2" d="M149.06,60.33a5.7,5.7,0,0,1-2.22,4.86q-2.22,1.66-6.63,1.67a20.28,20.28,0,0,1-3.86-.31,14.06,14.06,0,0,1-3-.9V61a19.92,19.92,0,0,0,3.55,1.24,14.62,14.62,0,0,0,3.48.5c2.06,0,3.08-.59,3.08-1.78a1.5,1.5,0,0,0-.4-1.09,6.5,6.5,0,0,0-1.41-.94c-.67-.35-1.56-.77-2.68-1.24a16.51,16.51,0,0,1-3.51-1.85,5.21,5.21,0,0,1-1.64-2,6.44,6.44,0,0,1-.51-2.72,4.91,4.91,0,0,1,2.15-4.27,10.41,10.41,0,0,1,6.07-1.52,17.29,17.29,0,0,1,7.3,1.64l-1.71,4.08c-1-.45-2-.81-2.91-1.1a9.35,9.35,0,0,0-2.77-.42c-1.67,0-2.5.45-2.5,1.35a1.6,1.6,0,0,0,.8,1.32,22.25,22.25,0,0,0,3.54,1.65,16.43,16.43,0,0,1,3.56,1.84,5.4,5.4,0,0,1,1.67,2A6.07,6.07,0,0,1,149.06,60.33Z"/><path class="cls-2" d="M162.21,62.35a12.44,12.44,0,0,0,3.57-.65v4.21a12.75,12.75,0,0,1-5.2,1q-3.39,0-4.94-1.72A7.43,7.43,0,0,1,154.09,60V50h-2.71V47.6l3.12-1.89,1.63-4.38h3.62v4.41h5.8V50h-5.8V60a2.2,2.2,0,0,0,.67,1.78A2.64,2.64,0,0,0,162.21,62.35Z"/><polygon class="cls-1" points="44.23 62.33 47.96 58.59 26.63 37.26 26.63 36.08 40.86 50.31 44.6 46.58 26.63 28.6 26.63 27.43 37.49 38.3 41.23 34.56 26.63 19.95 26.63 18.77 34.13 26.28 37.87 22.54 26.63 11.3 26.63 10.12 30.77 14.26 34.51 10.52 23.98 0 13.46 10.52 17.2 14.26 21.34 10.12 21.34 11.3 10.1 22.54 13.83 26.28 21.34 18.77 21.34 19.95 6.73 34.56 10.47 38.3 21.34 27.43 21.34 28.6 3.37 46.58 7.1 50.31 21.34 36.08 21.34 37.26 0 58.59 3.74 62.33 21.34 44.73 21.34 45.91 8.65 58.59 12.39 62.33 21.34 53.39 21.34 72 26.63 72 26.63 53.39 35.57 62.33 39.31 58.59 26.63 45.91 26.63 44.73 44.23 62.33"/></g></g></svg>