<svg xmlns="http://www.w3.org/2000/svg" viewBox="0 0 47.96 72"><defs><style>.cls-1{fill:#889526;}</style></defs><g id="Layer_2" data-name="Layer 2"><g id="Layer_1-2" data-name="Layer 1"><polygon class="cls-1" points="44.23 62.33 47.96 58.59 26.63 37.26 26.63 36.08 40.86 50.31 44.6 46.58 26.63 28.6 26.63 27.43 37.49 38.3 41.23 34.56 26.63 19.95 26.63 18.77 34.13 26.28 37.87 22.54 26.63 11.3 26.63 10.12 30.77 14.26 34.51 10.52 23.98 0 13.46 10.52 17.2 14.26 21.34 10.12 21.34 11.3 10.1 22.54 13.83 26.28 21.34 18.77 21.34 19.95 6.73 34.56 10.47 38.3 21.34 27.43 21.34 28.6 3.37 46.58 7.1 50.31 21.34 36.08 21.34 37.26 0 58.59 3.74 62.33 21.34 44.73 21.34 45.91 8.65 58.59 12.39 62.33 21.34 53.39 21.34 72 26.63 72 26.63 53.39 35.57 62.33 39.31 58.59 26.63 45.91 26.63 44.73 44.23 62.33"/></g></g></svg>