<svg xmlns="http://www.w3.org/2000/svg" viewBox="0 0 419.2 82.79"><defs><style>.cls-1{font-size:72px;font-family:OpenSans-Bold, Open Sans;font-weight:700;}.cls-1,.cls-3{fill:#889526;}.cls-2{fill:#4d4d4d;}</style></defs><g id="Layer_2" data-name="Layer 2"><g id="Layer_1-2" data-name="Layer 1"><text class="cls-1" transform="translate(40.68 61.7)">data<tspan class="cls-2" x="163.79" y="0">fo</tspan><tspan class="cls-2" x="236.25" y="0">r</tspan><tspan class="cls-2" x="268.95" y="0">est</tspan></text><polygon class="cls-3" points="35.01 54.56 37.97 51.6 21.08 34.7 21.08 33.77 32.35 45.04 35.31 42.08 21.08 27.86 21.08 26.93 29.68 35.53 32.64 32.57 21.08 21 21.08 20.07 27.02 26.02 29.98 23.06 21.08 14.15 21.08 13.22 24.36 16.5 27.32 13.54 18.99 5.21 10.66 13.54 13.62 16.5 16.89 13.22 16.89 14.15 7.99 23.06 10.95 26.02 16.89 20.07 16.89 21 5.33 32.57 8.29 35.53 16.89 26.93 16.89 27.86 2.66 42.08 5.62 45.04 16.89 33.77 16.89 34.7 0 51.6 2.96 54.56 16.89 40.63 16.89 41.55 6.85 51.6 9.81 54.56 16.89 47.48 16.89 62.21 21.08 62.21 21.08 47.48 28.16 54.56 31.12 51.6 21.08 41.55 21.08 40.63 35.01 54.56"/></g></g></svg>